import svgColors from '../src/_helpers/svgColors.jsx'

<?xml version="1.0" encoding="UTF-8" standalone="no"?>
<?xml-stylesheet href="styles.css" type="text/css"?>
<!DOCTYPE svg PUBLIC "-//W3C//DTD SVG 1.1//EN" "http://www.w3.org/Graphics/SVG/1.1/DTD/svg11.dtd">
<svg width="100%" height="100%" viewBox="0 0 757 743" version="1.1" xmlns="http://www.w3.org/2000/svg" xmlns:xlink="http://www.w3.org/1999/xlink" xml:space="preserve" xmlns:serif="http://www.serif.com/" style="fill-rule:evenodd;clip-rule:evenodd;stroke-linecap:round;stroke-linejoin:round;stroke-miterlimit:1.5;">
    <defs>
        <style type="text/css"> <![CDATA[ 
            g {
        fill: rgba(255,255,255,0.2);
}
        ]]>
        </style>
    </defs>
    
    <g transform="matrix(4.16667,0,0,4.16667,0,0)">
        <g id="Front-Logo" serif:id="Front Logo" transform="matrix(0.416167,0,0,0.416167,-44.0157,-40.0822)">
            <g id="Bottom-Trace-Tomahawk" serif:id="Bottom Trace Tomahawk" transform="matrix(-0.54728,0,0,0.54728,544.109,-103.86)">
                <g transform="matrix(0.810428,-0.810428,0.792459,0.792459,-381.871,238.447)">
                    <path d="M198.018,518.837L198.018,544.439C198.018,559.885 206.998,557.239 185.501,557.239C185.501,557.239 162.071,557.251 159.332,557.239C143.662,557.169 146.14,560.449 146.815,544.439C146.855,543.49 146.815,518.837 146.815,518.837C146.815,506.016 146.795,506.037 159.332,506.037L185.501,506.037C197.912,506.037 198.018,506.145 198.018,518.837Z"/>
                </g>
                <g transform="matrix(0.979835,-0.979835,0.264781,0.264781,-91.5325,589.143)">
                    <path d="M198.018,518.837L198.018,544.439C198.667,564.199 196.468,557.239 194.558,557.239L150.274,557.239C149.247,557.239 146.898,558.646 146.898,538.118C146.898,538.118 146.547,538.095 146.815,518.837C147.082,499.579 153.158,502.215 161.179,503.35C181.944,506.29 193.925,504.661 193.925,504.661C195.834,504.661 198.074,496.02 198.018,518.837Z"/>
                </g>
                <g transform="matrix(0.921033,-0.921033,0.194143,0.194143,-19.2123,640.224)">
                    <path d="M198.018,518.837L198.018,544.439C198.018,551.503 196.809,557.239 195.319,557.239L149.513,557.239C144.812,556.617 145.621,536.517 145.743,530.476C145.972,519.153 148.77,506.925 149.812,506.925L195.319,506.037C196.809,506.037 198.018,511.772 198.018,518.837Z"/>
                </g>
                <g transform="matrix(0.732384,-0.732384,0.268825,0.268825,260.225,864.625)">
                    <path d="M199.234,528.508C199.234,537.042 199.624,557.239 193.319,557.239L151.513,557.239C144.774,557.239 146.277,563.911 146.277,530.106C146.277,521.851 145.424,506.037 151.513,506.037L193.319,506.037C199.265,506.037 199.234,498.916 199.234,528.508Z"/>
                </g>
                <g transform="matrix(0.709723,-0.709723,0.204946,0.204946,321.509,920.407)">
                    <path d="M198.018,518.837L198.018,544.439C198.018,551.503 196.361,557.239 194.321,557.239L150.511,557.239C148.471,557.239 146.815,551.503 146.815,544.439L146.815,518.837C146.815,511.772 148.471,506.037 150.511,506.037L194.321,506.037C196.361,506.037 198.018,511.772 198.018,518.837Z"/>
                </g>
                <g transform="matrix(0.764108,-0.764108,0.128504,0.128504,371.361,992.609)">
                    <path d="M198.018,518.837L198.018,544.439C198.018,551.503 197.053,557.239 195.865,557.239C195.865,557.239 148.952,563.356 149.21,555.202C150.789,505.415 149.153,506.037 153.802,506.037L195.865,506.037C197.053,506.037 198.018,511.772 198.018,518.837Z"/>
                </g>
                <g transform="matrix(0.830837,-0.830837,0.513352,0.513352,184.45,826.936)">
                    <path d="M198.018,518.837L198.018,544.439C198.018,574.82 139.346,575.848 139.346,545.794C139.346,545.794 146.994,525.01 146.815,518.837C146.488,507.579 150.359,506.037 154.724,506.037L190.108,506.037C194.474,506.037 198.018,504.127 198.018,518.837Z"/>
                </g>
                <g transform="matrix(-4.39059,0,0,4.39059,800.952,365.76)">
                    <path d="M105.438,82.604L97.45,74.616C99.119,73.03 100.168,72.026 100.307,71.876C112.805,58.328 117.917,49.271 119.068,50.226C119.644,50.704 126.791,57.378 126.791,57.378C128.999,59.585 128.999,59.063 126.791,61.27C118.462,69.599 111.41,76.645 105.438,82.604Z"/>
                </g>
                <g transform="matrix(-4.39059,0,0,4.39059,800.952,365.76)">
                    <path d="M84.01,103.942C72.51,115.355 72.445,115.311 72.445,115.311C70.894,116.863 71.321,118.02 68.735,115.434L64.843,111.542C61.383,108.083 61.301,109.084 63.608,106.822C65.972,104.503 70.454,100.221 75.496,95.429L84.01,103.942Z"/>
                </g>
                <g transform="matrix(0.780156,-0.780156,0.694576,0.694576,-394.09,258.52)">
                    <path d="M156.947,584.276L157.355,623.168C157.355,625.41 125.22,623.062 114.729,627.823C64.723,650.517 24.688,687.472 24.688,687.472C9.958,671.748 -36.554,623.218 -10.076,583.629L156.947,584.276Z"/>
                </g>
            </g>
            <g id="Bottom-Trace-Tomahawk1" serif:id="Bottom Trace Tomahawk" transform="matrix(0.54728,0,0,0.54728,103.891,-103.86)">
                <g transform="matrix(0.810428,-0.810428,0.792459,0.792459,-381.871,238.447)">
                    <path d="M198.018,518.837L198.018,544.439C198.018,559.885 206.998,557.239 185.501,557.239C185.501,557.239 162.071,557.251 159.332,557.239C143.662,557.169 146.14,560.449 146.815,544.439C146.855,543.49 146.815,518.837 146.815,518.837C146.815,506.016 146.795,506.037 159.332,506.037L185.501,506.037C197.912,506.037 198.018,506.145 198.018,518.837Z"/>
                </g>
                <g transform="matrix(0.979835,-0.979835,0.264781,0.264781,-91.5325,589.143)">
                    <path d="M198.018,518.837L198.018,544.439C198.667,564.199 196.468,557.239 194.558,557.239L150.274,557.239C149.247,557.239 146.898,558.646 146.898,538.118C146.898,538.118 146.547,538.095 146.815,518.837C147.082,499.579 153.158,502.215 161.179,503.35C181.944,506.29 193.925,504.661 193.925,504.661C195.834,504.661 198.074,496.02 198.018,518.837Z"/>
                </g>
                <g transform="matrix(0.921033,-0.921033,0.194143,0.194143,-19.2123,640.224)">
                    <path d="M198.018,518.837L198.018,544.439C198.018,551.503 196.809,557.239 195.319,557.239L149.513,557.239C144.812,556.617 145.621,536.517 145.743,530.476C145.972,519.153 148.77,506.925 149.812,506.925L195.319,506.037C196.809,506.037 198.018,511.772 198.018,518.837Z"/>
                </g>
                <g transform="matrix(0.732384,-0.732384,0.268825,0.268825,260.225,864.625)">
                    <path d="M199.234,528.508C199.234,537.042 199.624,557.239 193.319,557.239L151.513,557.239C144.774,557.239 146.277,563.911 146.277,530.106C146.277,521.851 145.424,506.037 151.513,506.037L193.319,506.037C199.265,506.037 199.234,498.916 199.234,528.508Z"/>
                </g>
                <g transform="matrix(0.709723,-0.709723,0.204946,0.204946,321.509,920.407)">
                    <path d="M198.018,518.837L198.018,544.439C198.018,551.503 196.361,557.239 194.321,557.239L150.511,557.239C148.471,557.239 146.815,551.503 146.815,544.439L146.815,518.837C146.815,511.772 148.471,506.037 150.511,506.037L194.321,506.037C196.361,506.037 198.018,511.772 198.018,518.837Z"/>
                </g>
                <g transform="matrix(0.764108,-0.764108,0.128504,0.128504,371.361,992.609)">
                    <path d="M198.018,518.837L198.018,544.439C198.018,551.503 197.053,557.239 195.865,557.239C195.865,557.239 148.952,563.356 149.21,555.202C150.789,505.415 149.153,506.037 153.802,506.037L195.865,506.037C197.053,506.037 198.018,511.772 198.018,518.837Z"/>
                </g>
                <g transform="matrix(0.830837,-0.830837,0.513352,0.513352,184.45,826.936)">
                    <path d="M198.018,518.837L198.018,544.439C198.018,574.82 139.346,575.848 139.346,545.794C139.346,545.794 146.994,525.01 146.815,518.837C146.488,507.579 150.359,506.037 154.724,506.037L190.108,506.037C194.474,506.037 198.018,504.127 198.018,518.837Z"/>
                </g>
                <g transform="matrix(0.66752,-0.66752,4.97831,4.97831,-2381.49,-1794.98)">
                    <path d="M208.535,506.288C215.462,506.375 202.488,512.623 199.036,524.109C198.825,524.811 204.326,549.193 204.802,555.702C204.95,557.717 207.971,557.239 185.217,557.239L159.616,557.239C142.606,557.239 147.818,556.917 147.818,555.549C147.818,555.549 146.815,555.523 146.815,507.753C146.815,505.806 145.096,506.037 159.616,506.037C159.616,506.037 205.071,506.245 208.535,506.288Z"/>
                </g>
                <g transform="matrix(0.780156,-0.780156,0.694576,0.694576,-394.09,258.52)">
                    <path d="M156.947,584.276L157.355,623.168C157.355,625.41 125.22,623.062 114.729,627.823C64.723,650.517 24.688,687.472 24.688,687.472C9.958,671.748 -36.554,623.218 -10.076,583.629L156.947,584.276Z"/>
                </g>
            </g>
            <g id="Bottom-Feather" serif:id="Bottom Feather" transform="matrix(0.615981,0,0,-0.615981,5.69336,612.851)">
                <g transform="matrix(1,0,0,1,-1.62343,0)">
                    <path d="M522,382L522,405C519.667,409.925 517.333,410.495 515,405L515,382L522,382Z" style="stroke-width:3.9px;"/>
                </g>
                <path d="M517,145.5C534.108,161.091 544.663,182.325 548,205C549.523,214.156 540.973,230.09 528,249L553,222L553,253L530,279L553,262L552,285L530,308L552,295L550,316L530,340L549,326C548.979,346.051 538.82,361.549 523,372L522,212L518.5,192L516.5,174M517,145.5C499.892,161.091 489.337,182.325 486,205C484.477,214.156 493.027,230.09 506,249L481,222L481,253L504,279L481,262L482,285L504,308L482,295L484,316L504,340L485,326C485.021,346.051 495.18,361.549 511,372L512,212L515.5,192L516.5,174" style="stroke-width:3.9px;"/>
            </g>
            <g id="Top-Feather" serif:id="Top Feather" transform="matrix(0.615981,0,0,0.615981,5.69336,7.88895)">
                <g transform="matrix(1,0,0,1,-1.62343,0)">
                    <path d="M522,382L522,405C519.667,409.925 517.333,410.495 515,405L515,382L522,382Z" style="stroke-width:3.9px;"/>
                </g>
                <g transform="matrix(3.9009,0,0,3.9009,162.458,143.55)">
                    <path d="M90.887,0.503C95.16,4.457 97.814,9.516 98.834,15.753C98.384,19.815 96.373,23.193 93.705,26.776L100.006,20.479L100.116,28.142C97.493,30.108 95.602,32.337 94.256,34.759C96.075,33.075 98.021,31.623 100.116,30.441L99.884,36.274C97.638,37.655 95.833,40.09 94.162,42.622C95.953,41.131 97.761,39.589 99.816,38.808L99.378,44.216C97.148,45.441 95.458,47.937 94.064,50.688C95.725,49.195 97.359,47.94 98.949,47.051C97.885,51.769 95.845,55.683 92.55,58.563L92.505,17.534C91.763,15.926 91.518,14.226 91.495,12.462L90.887,6.161L90.407,12.455C90.506,14.536 90.143,16.309 89.49,17.535L89.351,58.563C85.901,55.485 84.235,51.648 83.047,47.045C84.598,48.678 85.944,49.77 87.925,50.685C86.851,48.427 85.339,46.301 82.613,44.216L82.184,38.822L87.821,42.617L82.131,36.281L81.834,30.437L87.61,34.757L81.658,28.153L81.658,20.495L88.311,26.801C85.475,23.452 83.221,19.935 83.222,15.763C83.756,10.334 85.954,5.187 90.887,0.503Z" style="stroke-width:1px;"/>
                </g>
            </g>
        </g>
    </g>
</svg>
